<svg width="48" height="48" viewBox="0 0 48 48" fill="none" xmlns="http://www.w3.org/2000/svg">
<path d="M47.51 41.832V5.54996C47.5055 4.17672 46.958 2.86101 45.987 1.88998C45.016 0.918944 43.7003 0.371441 42.327 0.366959H6.04501C4.67178 0.371441 3.35606 0.918944 2.38503 1.88998C1.414 2.86101 0.866497 4.17672 0.862015 5.54996V41.832C0.866497 43.2052 1.414 44.5209 2.38503 45.4919C3.35606 46.463 4.67178 47.0105 6.04501 47.015H42.327C43.7003 47.0105 45.016 46.463 45.987 45.4919C46.958 44.5209 47.5055 43.2052 47.51 41.832ZM15.116 27.579L21.595 35.379L30.662 23.691L42.327 39.241H6.04501L15.116 27.579Z" fill="#E7EBEF"/>
</svg>
