<svg width="11" height="13" viewBox="0 0 11 13" fill="none" xmlns="http://www.w3.org/2000/svg">
<path d="M5.54596 0.70093C4.85332 0.725728 4.17427 0.900229 3.55549 1.21243C2.93671 1.52464 2.39288 1.96714 1.96139 2.50952C1.5299 3.0519 1.22098 3.68129 1.05588 4.35442C0.890779 5.02755 0.873408 5.72845 1.00496 6.40893V6.40893C1.00496 6.40893 1.01196 6.46093 1.03696 6.55893C1.11108 6.88667 1.21934 7.20575 1.35996 7.51093C2.29563 9.51953 3.69794 11.2753 5.44996 12.6319C5.52483 12.6941 5.61911 12.7282 5.71646 12.7282C5.81381 12.7282 5.90808 12.6941 5.98296 12.6319C7.73634 11.2754 9.13945 9.51876 10.075 7.50893C10.217 7.20433 10.3253 6.8851 10.398 6.55693C10.42 6.45693 10.43 6.40693 10.43 6.40693C10.5667 5.69818 10.5418 4.96773 10.3571 4.26994C10.1724 3.57214 9.83279 2.92498 9.36342 2.37662C8.89405 1.82825 8.30705 1.3928 7.64611 1.10268C6.98517 0.81256 6.26731 0.675236 5.54596 0.70093V0.70093ZM5.71596 7.88393C5.25493 7.88393 4.80426 7.74722 4.42093 7.49109C4.03759 7.23495 3.73882 6.8709 3.56239 6.44496C3.38597 6.01903 3.33981 5.55034 3.42975 5.09817C3.51969 4.646 3.7417 4.23066 4.06769 3.90466C4.39369 3.57867 4.80903 3.35666 5.2612 3.26672C5.71337 3.17678 6.18206 3.22294 6.60799 3.39937C7.03393 3.57579 7.39798 3.87456 7.65411 4.2579C7.91025 4.64123 8.04696 5.0919 8.04696 5.55293C8.04735 5.85904 7.98745 6.16223 7.87067 6.44519C7.75389 6.72815 7.58252 6.98534 7.36634 7.20208C7.15017 7.41881 6.89342 7.59084 6.61076 7.70835C6.3281 7.82585 6.02507 7.88654 5.71896 7.88693L5.71596 7.88393Z" fill="#7E828E"/>
</svg>
