<svg width="16" height="16" viewBox="0 0 16 16" fill="none" xmlns="http://www.w3.org/2000/svg">
<path d="M15.459 7.21996C15.6089 7.07364 15.7149 6.8883 15.765 6.68488C15.8151 6.48147 15.8074 6.2681 15.7425 6.06889C15.6777 5.86967 15.5585 5.69256 15.3983 5.55756C15.2381 5.42257 15.0433 5.33507 14.836 5.30496L11.044 4.75396C10.9647 4.74204 10.8893 4.71119 10.8244 4.66402C10.7595 4.61685 10.7069 4.55475 10.671 4.48296L8.97802 1.04896C8.88528 0.861075 8.74182 0.702882 8.56386 0.592268C8.38591 0.481655 8.18055 0.423035 7.97102 0.423035C7.76149 0.423035 7.55614 0.481655 7.37818 0.592268C7.20023 0.702882 7.05677 0.861075 6.96402 1.04896L5.26402 4.48396C5.22816 4.55575 5.17554 4.61785 5.11062 4.66502C5.0457 4.71219 4.97038 4.74304 4.89102 4.75496L1.10602 5.30596C0.898705 5.33607 0.703942 5.42357 0.543747 5.55856C0.383551 5.69356 0.26431 5.87067 0.1995 6.06989C0.134691 6.2691 0.126897 6.48247 0.176999 6.68588C0.227101 6.8893 0.333102 7.07464 0.483021 7.22096L3.22602 9.89396C3.28339 9.95026 3.32633 10.0195 3.35123 10.096C3.37612 10.1724 3.38222 10.2537 3.36902 10.333L2.72202 14.108C2.69289 14.2683 2.69976 14.4332 2.74213 14.5905C2.7845 14.7479 2.86132 14.8939 2.96702 15.018C3.13308 15.2129 3.36019 15.346 3.61146 15.3956C3.86272 15.4452 4.12336 15.4083 4.35102 15.291L7.74402 13.509C7.81539 13.4725 7.89439 13.4535 7.97452 13.4535C8.05466 13.4535 8.13365 13.4725 8.20502 13.509L11.595 15.292C11.7557 15.3778 11.9349 15.4227 12.117 15.423C12.281 15.423 12.443 15.3872 12.5917 15.3181C12.7405 15.2491 12.8723 15.1483 12.978 15.023C13.0837 14.8989 13.1605 14.7529 13.2029 14.5955C13.2453 14.4382 13.2522 14.2733 13.223 14.113L12.576 10.338C12.5628 10.2587 12.5689 10.1774 12.5938 10.101C12.6187 10.0245 12.6617 9.95526 12.719 9.89896L15.459 7.21996Z" fill="#FFC107"/>
</svg>
